# xmcd CD database file
#
# Track frame offsets:
#	150
#	19792
#	39992
#	58942
#	79227
#	96472
#	124955
#	146897
#	172970
#	194717
#	218267
#	242010
#	265130
#
# Disc length: 3922 seconds
#
# Revision: 11
# Processed by: cddbd v1.5.2PL0 Copyright (c) Steve Scherf et al.
# Submitted via: CDex 1.70beta2
#
DISCID=bd0f500d
DTITLE=徳永英明 - シングルコレクション 1986-1991
DYEAR=2000
DGENRE=Pop
TTITLE0=レイニーブルー
TTITLE1=夏のラジオ
TTITLE2=BIRDS
TTITLE3=輝きながら
TTITLE4=風のエオリア
TTITLE5=最後の言い訳
TTITLE6=恋人
TTITLE7=MYSELF -風になりたい-
TTITLE8=夢を信じて
TTITLE9=壊れかけのRadio
TTITLE10=Wednesday Moon
TTITLE11=LOVE IS ALL
TTITLE12=Revolution
EXTD=YEAR: 2000
EXTT0=
EXTT1=
EXTT2=
EXTT3=
EXTT4=
EXTT5=
EXTT6=
EXTT7=
EXTT8=
EXTT9=
EXTT10=
EXTT11=
EXTT12=
PLAYORDER=
